<svg width="32" height="32" viewBox="0 0 32 32" fill="none" xmlns="http://www.w3.org/2000/svg">
<g clip-path="url(#clip0_2044_87)">
<path d="M26.825 5.175C23.9375 2.28125 20.0875 0.6875 16 0.6875C11.9125 0.6875 8.0625 2.28125 5.175 5.175C2.2875 8.06875 0.6875 11.9125 0.6875 16C0.6875 20.0875 2.28125 23.9375 5.175 26.825C8.06875 29.7125 11.9125 31.3125 16 31.3125C20.0875 31.3125 23.9375 29.7188 26.825 26.825C29.7125 23.9313 31.3125 20.0875 31.3125 16C31.3125 11.9125 29.7188 8.0625 26.825 5.175ZM29.925 15.3125H23.9875C23.9312 12.95 23.6 10.675 23.0187 8.65625C24.15 8.075 25.2062 7.34375 26.175 6.48125C28.3625 8.81875 29.7562 11.9062 29.925 15.3125ZM16.6875 16.6875H22.6187C22.5688 18.8625 22.2687 20.9438 21.75 22.8062C20.15 22.1625 18.4438 21.7875 16.6875 21.7062V16.6875ZM25.1875 5.525C24.3875 6.23125 23.5125 6.83125 22.5875 7.33125C22.35 6.66875 22.0812 6.04375 21.7812 5.45625C21.1875 4.28125 20.5125 3.31875 19.7687 2.58125C21.8 3.15 23.6437 4.16875 25.1875 5.525ZM16.6875 2.275C18.1187 2.59375 19.4688 3.9125 20.5562 6.0625C20.85 6.64375 21.1125 7.2625 21.3438 7.91875C19.875 8.525 18.3062 8.88125 16.6875 8.9625V2.275ZM21.7563 9.2375C22.2688 11.0875 22.5625 13.1562 22.6125 15.3188H16.6875V10.3438C18.45 10.2625 20.1562 9.88125 21.7563 9.2375ZM15.3125 15.3125H9.38125C9.43125 13.15 9.725 11.0813 10.2375 9.23125C11.8375 9.88125 13.55 10.2563 15.3062 10.3313V15.3125H15.3125ZM15.3188 2.275V8.9625C13.7 8.88125 12.125 8.525 10.6625 7.91875C10.8938 7.2625 11.1562 6.64375 11.45 6.0625C12.5375 3.9125 13.8875 2.59375 15.3188 2.275ZM12.2375 2.58125C11.4938 3.31875 10.8188 4.2875 10.225 5.45625C9.93125 6.04375 9.6625 6.66875 9.41875 7.33125C8.49375 6.83125 7.625 6.23125 6.81875 5.525C8.3625 4.16875 10.2063 3.15 12.2375 2.58125ZM5.83125 6.48125C6.8 7.34375 7.85625 8.06875 8.9875 8.65625C8.40625 10.6812 8.06875 12.95 8.01875 15.3125H2.08125C2.25 11.9062 3.64375 8.81875 5.83125 6.48125ZM2.08125 16.6875H8.01875C8.075 19.0688 8.4125 21.35 9 23.3813C7.875 23.9625 6.81875 24.6813 5.85625 25.5438C3.65 23.2 2.25 20.1063 2.08125 16.6875ZM6.84375 26.5C7.64375 25.8 8.5125 25.2 9.43125 24.7062C9.66875 25.35 9.93125 25.9688 10.225 26.5438C10.8188 27.7188 11.4938 28.6812 12.2375 29.425C10.2188 28.8562 8.38125 27.8438 6.84375 26.5ZM15.3188 29.725C13.8875 29.4062 12.5375 28.0875 11.45 25.9375C11.1625 25.3687 10.9062 24.7625 10.675 24.1187C12.1375 23.5125 13.7063 23.1562 15.3188 23.0812V29.725ZM10.2563 22.8062C9.7375 20.9438 9.4375 18.8625 9.3875 16.6875H15.3188V21.7062C13.5625 21.7812 11.8563 22.1562 10.2563 22.8062ZM16.6938 29.725V23.0812C18.3062 23.1625 19.875 23.5125 21.3375 24.1187C21.1062 24.7625 20.85 25.3687 20.5625 25.9375C19.475 28.0875 18.125 29.4062 16.6938 29.725ZM19.775 29.4188C20.5187 28.6813 21.1938 27.7125 21.7875 26.5375C22.0813 25.9625 22.3438 25.3438 22.5812 24.7C23.5 25.1938 24.3688 25.7937 25.1688 26.4937C23.6313 27.8438 21.7937 28.8563 19.775 29.4188ZM26.1625 25.5438C25.2 24.6875 24.1437 23.9625 23.0187 23.3813C23.6062 21.35 23.9438 19.0625 24 16.6875H29.9375C29.7625 20.1063 28.3625 23.2 26.1625 25.5438Z" fill="#283248"/>
</g>
<defs>
<clipPath id="clip0_2044_87">
<rect width="32" height="32" fill="white"/>
</clipPath>
</defs>
</svg>
